<svg width="281" height="280" viewBox="0 0 281 280" fill="none" xmlns="http://www.w3.org/2000/svg">
<path d="M63.6905 184.424C64.3193 184.064 71.4156 181.06 106.719 197.518C106.616 197.658 106.572 197.724 106.572 197.724C106.572 197.724 69.8711 210.084 62.6803 194.857C60.533 190.324 61.1483 187.203 63.6292 184.459L63.6905 184.424Z" fill="#E53C16"/>
<path d="M182.347 190.652C174.677 197.1 162.649 201.78 151.043 195.557C152.877 194.385 154.771 193.178 156.703 191.929C168.358 184.44 178.625 189.451 182.347 190.652Z" fill="#E53C16"/>
<path d="M196.085 111.349C203.921 176.6 185.299 188.443 183.226 190.242C182.625 190.763 182.382 190.725 181.475 190.491L181.459 190.5C177.618 189.482 168.359 184.44 156.703 191.928C154.771 193.176 152.876 194.384 151.042 195.555C139.152 203.096 129.55 208.411 122.633 205.326C116.765 202.333 111.475 199.743 106.719 197.518C71.4157 181.059 64.3194 184.064 63.6907 184.424C64.4202 184.026 71.1126 180.317 80.1239 173.793C80.1545 173.775 80.1852 173.758 80.1918 173.734C92.2365 165.005 108.367 151.249 119.961 133.554C127.854 121.521 135.576 91.0168 150.475 85.0315C181.094 73.6089 194.814 98.076 196.085 111.349Z" fill="#FF623D"/>
<path d="M162.228 110.204C163.179 107.694 163.086 105.333 162.021 104.93C160.957 104.526 159.323 106.234 158.372 108.744C157.422 111.254 157.515 113.615 158.579 114.018C159.644 114.421 161.278 112.714 162.228 110.204Z" fill="#FFFBFA"/>
<path d="M181.724 113.406C182.398 110.808 182.051 108.471 180.948 108.185C179.846 107.899 178.407 109.774 177.733 112.371C177.06 114.969 177.407 117.307 178.509 117.593C179.611 117.878 181.051 116.004 181.724 113.406Z" fill="#FFFBFA"/>
</svg>
